<svg width="48" height="48" viewBox="0 0 48 48" fill="none" xmlns="http://www.w3.org/2000/svg">
<g clip-path="url(#clip0_1334_1650)">
<path  style="scale: 1.5;" d="M8.09095 24.96L0.365234 18.8342L4.20523 11.7028L15.2224 16L8.09095 24.96Z" fill="url(#paint0_linear_1334_1650)"/>
<path  style="scale: 1.5;" d="M32.0003 8.54852L31.406 27.0628L19.1088 32L11.7031 27.2457L22.5374 16L17.7831 5.62281L22.0346 0.502808L32.0003 8.54852Z" fill="url(#paint1_linear_1334_1650)"/>
<path  style="scale: 1.5;" d="M32.0003 8.54852L22.2632 20.0685L17.7832 5.62281L22.0346 0.502808L32.0003 8.54852Z" fill="url(#paint2_linear_1334_1650)"/>
<path  style="scale: 1.5;" d="M15.4057 26.56L2.56 31.2229L4.61714 24L7.31429 15.1314L0 12.6629L4.61714 0L14.6743 1.23429L24.5486 12.5257L15.4057 26.56Z" fill="url(#paint3_linear_1334_1650)"/>
<path  style="scale: 1.5;" d="M6.26367 6.17145H26.0122V25.92H6.26367V6.17145Z" fill="black"/>
<path  style="scale: 1.5;" d="M8.0918 22.2171H15.4975V23.4514H8.0918V22.2171Z" fill="white"/>
<path  style="scale: 1.5;" d="M13.4405 10.24V8.73138H9.32617V10.24H10.5147V15.4057H9.32617V16.9142H13.4405V15.4057H12.2976V10.24H13.4405Z" fill="white"/>
<path  style="scale: 1.5;" d="M17.3721 17.0514C16.7321 17.0514 16.1836 16.9142 15.7721 16.6857C15.3607 16.4571 14.995 16.1371 14.7207 15.8171L15.8636 14.5371C16.0921 14.8114 16.3207 14.9942 16.5493 15.1314C16.7778 15.2685 17.0521 15.36 17.3264 15.36C17.6464 15.36 17.9207 15.2685 18.1493 15.04C18.3321 14.8114 18.4236 14.4914 18.4236 13.9885V8.73138H20.2521V14.08C20.2521 14.5828 20.2064 14.9942 20.0693 15.36C19.9321 15.7257 19.7493 16 19.475 16.2742C19.2464 16.5028 18.9264 16.7314 18.5607 16.8228C18.195 16.96 17.8293 17.0514 17.3721 17.0514Z" fill="white"/>
</g>
<defs>
<linearGradient id="paint0_linear_1334_1650" x1="0.360663" y1="18.3264" x2="15.2301" y2="18.3264" gradientUnits="userSpaceOnUse">
<stop offset="0.258" stop-color="#F97A12"/>
<stop offset="0.459" stop-color="#B07B58"/>
<stop offset="0.724" stop-color="#577BAE"/>
<stop offset="0.91" stop-color="#1E7CE5"/>
<stop offset="1" stop-color="#087CFA"/>
</linearGradient>
<linearGradient id="paint1_linear_1334_1650" x1="11.7795" y1="11.3737" x2="36.3084" y2="24.9462" gradientUnits="userSpaceOnUse">
<stop stop-color="#F97A12"/>
<stop offset="0.072" stop-color="#CB7A3E"/>
<stop offset="0.154" stop-color="#9E7B6A"/>
<stop offset="0.242" stop-color="#757B91"/>
<stop offset="0.334" stop-color="#537BB1"/>
<stop offset="0.432" stop-color="#387CCC"/>
<stop offset="0.538" stop-color="#237CE0"/>
<stop offset="0.655" stop-color="#147CEF"/>
<stop offset="0.792" stop-color="#0B7CF7"/>
<stop offset="1" stop-color="#087CFA"/>
</linearGradient>
<linearGradient id="paint2_linear_1334_1650" x1="28.9046" y1="19.6182" x2="22.0758" y2="-0.785878" gradientUnits="userSpaceOnUse">
<stop stop-color="#FE315D"/>
<stop offset="0.078" stop-color="#CB417E"/>
<stop offset="0.16" stop-color="#9E4E9B"/>
<stop offset="0.247" stop-color="#755BB4"/>
<stop offset="0.339" stop-color="#5365CA"/>
<stop offset="0.436" stop-color="#386DDB"/>
<stop offset="0.541" stop-color="#2374E9"/>
<stop offset="0.658" stop-color="#1478F3"/>
<stop offset="0.794" stop-color="#0B7BF8"/>
<stop offset="1" stop-color="#087CFA"/>
</linearGradient>
<linearGradient id="paint3_linear_1334_1650" x1="4.90057" y1="7.53051" x2="25.3824" y2="41.408" gradientUnits="userSpaceOnUse">
<stop stop-color="#FE315D"/>
<stop offset="0.04" stop-color="#F63462"/>
<stop offset="0.104" stop-color="#DF3A71"/>
<stop offset="0.167" stop-color="#C24383"/>
<stop offset="0.291" stop-color="#AD4A91"/>
<stop offset="0.55" stop-color="#755BB4"/>
<stop offset="0.917" stop-color="#1D76ED"/>
<stop offset="1" stop-color="#087CFA"/>
</linearGradient>
<clipPath id="clip0_1334_1650">
<rect width="48" height="48" fill="white"/>
</clipPath>
</defs>
</svg>
