<svg width="48" height="48" viewBox="0 0 48 48" fill="none" xmlns="http://www.w3.org/2000/svg">
<g clip-path="url(#clip0_1334_1527)">
<path  style="scale: 1.5;" d="M4.29714 28.9371L0 3.33714L8 0.0457153L13.0743 3.06286L17.7371 0.548573L27.4743 4.29714L21.9886 32L4.29714 28.9371Z" fill="url(#paint0_linear_1334_1527)"/>
<path  style="scale: 1.5;" d="M31.9994 10.8343L27.8851 0.64L20.388 0L8.82227 11.1086L11.9308 25.4171L17.7366 29.5314L31.9994 21.0286L28.4794 14.4914L31.9994 10.8343Z" fill="url(#paint1_linear_1334_1527)"/>
<path  style="scale: 1.5;" d="M25.5996 9.32569L28.4796 14.4914L31.9996 10.8343L29.4396 4.47998L25.5996 9.32569Z" fill="url(#paint2_linear_1334_1527)"/>
<path  style="scale: 1.5;" d="M6.125 6.12567H25.8736V25.8742H6.125V6.12567Z" fill="black"/>
<path  style="scale: 1.5;" d="M8 22.1714H15.4057V23.4057H8V22.1714Z" fill="white"/>
<path  style="scale: 1.5;" d="M17.6914 15.68L18.7428 14.4C19.4743 14.9943 20.2514 15.4057 21.1657 15.4057C21.8971 15.4057 22.3085 15.1314 22.3085 14.6286V14.5829C22.3085 14.1257 22.0343 13.8972 20.6628 13.5314C19.0171 13.12 18.0114 12.6629 18.0114 11.0172V10.9714C18.0114 9.46287 19.2 8.50287 20.8457 8.50287C22.0343 8.50287 23.04 8.86858 23.8628 9.5543L22.9485 10.9257C22.2171 10.4229 21.5314 10.1029 20.8457 10.1029C20.16 10.1029 19.7943 10.4229 19.7943 10.8343V10.88C19.7943 11.4286 20.16 11.6114 21.5314 11.9772C23.1771 12.4343 24.0914 13.0286 24.0914 14.4457V14.4914C24.0914 16.1372 22.8571 17.0514 21.12 17.0514C19.8857 17.0057 18.6514 16.5486 17.6914 15.68Z" fill="white"/>
<path  style="scale: 1.5;" d="M16.0907 8.68567L14.8565 13.44L13.485 8.68567H12.1136L10.6965 13.44L9.46218 8.68567H7.58789L9.91932 16.8685H11.4279L12.7993 12.1142L14.125 16.8685H15.6793L18.0107 8.68567H16.0907Z" fill="white"/>
</g>
<defs>
<linearGradient id="paint0_linear_1334_1527" x1="11.4597" y1="0.66743" x2="19.7408" y2="30.48" gradientUnits="userSpaceOnUse">
<stop offset="0.285" stop-color="#00CDD7"/>
<stop offset="0.941" stop-color="#2086D7"/>
</linearGradient>
<linearGradient id="paint1_linear_1334_1527" x1="14.0428" y1="4.44983" x2="28.052" y2="24.9925" gradientUnits="userSpaceOnUse">
<stop offset="0.14" stop-color="#FFF045"/>
<stop offset="0.366" stop-color="#00CDD7"/>
</linearGradient>
<linearGradient id="paint2_linear_1334_1527" x1="27.9228" y1="6.98969" x2="29.7624" y2="13.5058" gradientUnits="userSpaceOnUse">
<stop offset="0.285" stop-color="#00CDD7"/>
<stop offset="0.941" stop-color="#2086D7"/>
</linearGradient>
<clipPath id="clip0_1334_1527">
<rect width="48" height="48" fill="white"/>
</clipPath>
</defs>
</svg>
