<svg width="48" height="48" viewBox="0 0 48 48" fill="none" xmlns="http://www.w3.org/2000/svg">
<path style="scale: 1.5;"  d="M16 2C8.27812 2 2 8.27812 2 16C2 23.7219 8.27812 30 16 30C23.7219 30 30 23.7219 30 16C30 8.27812 23.7219 2 16 2Z" fill="black"/>
<path style="scale: 1.5;"  d="M20.3982 14.6327C21.171 14.7516 21.7061 15.1082 22.0033 15.5838C22.3005 16.0594 22.4789 16.8917 22.4789 17.9617C22.4789 20.1019 21.825 21.8853 20.5171 23.2526C19.2092 24.6199 17.5447 25.3333 15.5235 25.3333C13.9443 25.3333 12.4815 24.776 11.3027 23.7282C9.93143 22.4941 8.76242 19.9843 9.99481 18.259C10.292 17.8428 10.8271 17.6051 11.481 17.4267C11.3621 17.1295 11.2432 16.8917 11.1838 16.6539C10.9685 16.0079 11.17 15.4787 11.6594 14.9893C12.0868 14.5619 12.6561 14.2515 13.2644 14.4543C13.4428 14.5138 13.6211 14.5732 13.8589 14.7516C13.3239 12.9681 12.7889 11.4819 12.4916 10.4713C12.1944 9.46068 12.0755 8.80675 12.0755 8.39062C12.0755 7.45831 12.6269 6.66663 13.6211 6.66663C14.7506 6.66663 15.1412 8.28036 16.5928 12.0546C16.8272 12.664 17.0097 13.1465 17.1286 13.5031C17.2475 13.2654 17.3664 12.8492 17.5447 12.3736C18.7931 8.80675 19.5527 7.20477 20.6006 7.08588C21.0141 7.03896 21.4683 7.14221 21.7655 7.43945C22.0033 7.73669 22.245 8.15706 22.1816 8.62841C21.8819 10.8593 21.0713 12.8154 20.3982 14.6327ZM11.2432 19.8641C11.3621 19.983 11.5405 20.2208 11.7188 20.518C12.2538 21.2908 12.7889 21.707 13.2644 21.707C13.9803 21.707 13.8727 20.9967 13.6211 20.5775C13.1971 19.8707 12.6583 19.1985 12.0755 18.6157C11.5695 18.2362 11.1361 18.2592 10.7082 18.794C9.85687 19.8582 10.6062 21.5384 11.3621 22.4203C11.8971 23.0148 12.4916 23.5499 13.2644 23.9065C14.0373 24.2632 14.8101 24.4416 15.7613 24.4416C17.4258 24.4416 18.7931 23.8471 19.9226 22.5987C21.0521 21.3503 21.5872 19.8046 21.5872 17.9023C21.5872 17.3078 21.5277 16.8917 21.4683 16.535C21.2935 15.4866 19.8705 15.2463 19.0309 15.0488C18.0203 14.811 16.9502 14.6921 15.8802 14.6921C15.3918 14.6921 15.0479 14.8824 15.0479 15.4055C15.0479 16 15.3451 16.4161 15.9991 16.6539C16.653 16.8917 17.723 17.07 19.1498 17.07C19.6041 17.07 20.2959 17.164 20.101 17.6051C19.9433 17.9617 18.7681 18.1886 18.1986 18.6157C17.3116 19.2071 16.4746 20.3614 16.4746 21.4692C16.4746 22.1468 17.09 23.3337 16.8313 23.431C15.7967 23.8199 15.6424 21.5013 15.6424 20.9936C15.3703 21.2656 15.0381 21.2343 14.7506 21.1125C14.7506 21.6353 14.909 22.0242 14.4534 22.4798C13.6963 23.2369 12.5517 22.6528 11.8971 22.0637C11.3621 21.5286 11.0316 21.0285 11.0316 20.4934C11.0316 20.2679 11.0778 20.0295 11.2432 19.8641ZM15.5235 19.983C16.1839 19.3225 14.8402 17.2935 14.4534 16.7133C14.0341 15.9795 13.2017 14.9927 12.3727 15.8216C11.887 16.3074 12.1352 16.8724 12.3727 17.4267C12.6105 17.8428 12.8483 18.259 13.205 18.7346C13.5745 19.2272 14.7481 20.7583 15.5235 19.983ZM16.3557 13.9787L14.929 9.99571C14.5723 8.9851 14.3345 8.27172 14.0967 7.97448C13.6974 7.309 12.8483 7.42295 12.8483 8.27172C12.8483 8.68786 13.0267 9.34178 13.3239 10.293C13.6211 11.2441 14.0967 12.5624 14.5928 14.1484C14.8277 13.6787 15.9521 13.9115 16.3557 13.9787ZM17.7825 17.8428C17.1276 17.8428 16.3716 17.7303 15.7613 17.4862C15.9834 18.0416 16.2375 18.5593 16.3557 19.1507C16.7504 18.6246 17.2613 18.2337 17.7825 17.8428ZM19.5065 14.3949C20.101 12.8492 20.5171 11.5414 20.8738 10.5307C21.171 9.52013 21.3494 8.92565 21.3494 8.68786C21.3494 7.70772 20.4485 7.79727 20.0415 8.50951C19.8037 8.92565 19.5065 9.52013 19.2092 10.4118L17.9014 14.0976L19.5065 14.3949Z" fill="white"/>
</svg>
