<svg width="24" height="24" viewBox="0 0 24 24" fill="none" xmlns="http://www.w3.org/2000/svg">
<g clip-path="url(#clip0_1334_1507)">
<path  style="scale: 0.75;" d="M22.4456 5.02856L31.7714 12.8457L28.4342 19.6571L22.7656 18.1028H17.9199L22.4456 5.02856Z" fill="url(#paint0_linear_1334_1507)"/>
<path  style="scale: 0.75;" d="M13.0286 10.1029L11.2 19.6571L11.0171 22.9486L6.49143 24.9143L0 25.6L1.96571 4.89143L13.6686 0L20.8914 4.75429L13.0286 10.1029Z" fill="url(#paint1_linear_1334_1507)"/>
<path  style="scale: 0.75;" d="M13.0286 10.1028L13.8971 28.5714L10.9714 32L0 25.6L9.00571 12.16L13.0286 10.1028Z" fill="url(#paint2_linear_1334_1507)"/>
<path  style="scale: 0.75;" d="M25.0969 8.73143H13.9883L23.8169 0L25.0969 8.73143Z" fill="url(#paint3_linear_1334_1507)"/>
<path  style="scale: 0.75;" d="M32.0001 28.6171L22.2172 31.9543L9.23438 28.2971L13.0287 10.1029L14.5372 8.73143L22.4458 8L21.7144 15.9543L28.0229 13.5314L32.0001 28.6171Z" fill="url(#paint4_linear_1334_1507)"/>
<path  style="scale: 0.75;" d="M6.125 6.12567H25.8736V25.8742H6.125V6.12567Z" fill="black"/>
<path  style="scale: 0.75;" d="M8 22.1714H15.4057V23.4057H8V22.1714Z" fill="white"/>
<path  style="scale: 0.75;" d="M7.95312 8.73138H11.2446C13.2103 8.73138 14.3988 9.87424 14.3988 11.5657C14.3988 13.44 12.936 14.4914 11.1074 14.4914H9.73598V16.9142H7.95312L7.95312 8.73138ZM11.1531 12.8457C12.0674 12.8457 12.5703 12.2514 12.5703 11.5657C12.5703 10.7428 12.0217 10.3314 11.1074 10.3314H9.73598V12.8457H11.1531Z" fill="white"/>
<path  style="scale: 0.75;" d="M15.1309 12.8457C15.1309 10.5142 16.868 8.59424 19.3823 8.59424C20.9366 8.59424 21.8509 9.0971 22.628 9.87424L21.4851 11.2C20.8451 10.6057 20.2051 10.2857 19.3823 10.2857C18.0109 10.2857 17.0051 11.4285 17.0051 12.8457C17.0051 14.2628 17.9651 15.36 19.3823 15.36C20.2966 15.36 20.8909 14.9942 21.5309 14.4L22.6737 15.5428C21.8509 16.4571 20.8909 17.0057 19.3366 17.0057C16.9137 17.0514 15.1309 15.1771 15.1309 12.8457Z" fill="white"/>
</g>
<defs>
<linearGradient id="paint0_linear_1334_1507" x1="11.4276" y1="12.3639" x2="30.4712" y2="12.3639" gradientUnits="userSpaceOnUse">
<stop stop-color="#21D789"/>
<stop offset="1" stop-color="#07C3F2"/>
</linearGradient>
<linearGradient id="paint1_linear_1334_1507" x1="-11.227" y1="27.0085" x2="27.9863" y2="-1.93875" gradientUnits="userSpaceOnUse">
<stop offset="0.011" stop-color="#FCF84A"/>
<stop offset="0.112" stop-color="#A7EB62"/>
<stop offset="0.206" stop-color="#5FE077"/>
<stop offset="0.273" stop-color="#32DA84"/>
<stop offset="0.306" stop-color="#21D789"/>
<stop offset="0.577" stop-color="#21D789"/>
<stop offset="0.597" stop-color="#21D789"/>
<stop offset="0.686" stop-color="#20D68C"/>
<stop offset="0.763" stop-color="#1ED497"/>
<stop offset="0.835" stop-color="#19D1A9"/>
<stop offset="0.904" stop-color="#13CCC2"/>
<stop offset="0.971" stop-color="#0BC6E1"/>
<stop offset="1" stop-color="#07C3F2"/>
</linearGradient>
<linearGradient id="paint2_linear_1334_1507" x1="4.26514" y1="35.499" x2="10.8055" y2="14.976" gradientUnits="userSpaceOnUse">
<stop stop-color="#21D789"/>
<stop offset="0.164" stop-color="#24D788"/>
<stop offset="0.305" stop-color="#2FD886"/>
<stop offset="0.437" stop-color="#41DA82"/>
<stop offset="0.564" stop-color="#5ADC7D"/>
<stop offset="0.688" stop-color="#7AE077"/>
<stop offset="0.809" stop-color="#A1E36E"/>
<stop offset="0.925" stop-color="#CFE865"/>
<stop offset="1" stop-color="#F1EB5E"/>
</linearGradient>
<linearGradient id="paint3_linear_1334_1507" x1="12.9254" y1="17.6562" x2="27.1581" y2="-1.47932" gradientUnits="userSpaceOnUse">
<stop stop-color="#21D789"/>
<stop offset="0.061" stop-color="#24D788"/>
<stop offset="0.113" stop-color="#2FD886"/>
<stop offset="0.162" stop-color="#41DA82"/>
<stop offset="0.209" stop-color="#5ADD7D"/>
<stop offset="0.255" stop-color="#79E077"/>
<stop offset="0.258" stop-color="#7CE076"/>
<stop offset="0.499" stop-color="#8CE173"/>
<stop offset="0.925" stop-color="#B2E56B"/>
</linearGradient>
<linearGradient id="paint4_linear_1334_1507" x1="34.6922" y1="20.0914" x2="6.01518" y2="19.8258" gradientUnits="userSpaceOnUse">
<stop offset="0.387" stop-color="#FCF84A"/>
<stop offset="0.536" stop-color="#ECF451"/>
<stop offset="0.826" stop-color="#C2E964"/>
<stop offset="0.925" stop-color="#B2E56B"/>
</linearGradient>
<clipPath id="clip0_1334_1507">
<rect width="24" height="24" fill="white"/>
</clipPath>
</defs>
</svg>
